<?xml version="1.0" encoding="UTF-8" standalone="no"?>
<!-- Uploaded to: SVG Repo, www.svgrepo.com, Generator: SVG Repo Mixer Tools -->

<svg
   width="19"
   height="19"
   viewBox="0 0 512 512"
   version="1.1"
   id="svg4"
   sodipodi:docname="banho.svg"
   inkscape:version="1.2.2 (b0a8486541, 2022-12-01)"
   xmlns:inkscape="http://www.inkscape.org/namespaces/inkscape"
   xmlns:sodipodi="http://sodipodi.sourceforge.net/DTD/sodipodi-0.dtd"
   xmlns="http://www.w3.org/2000/svg"
   xmlns:svg="http://www.w3.org/2000/svg">
  <defs
     id="defs8" />
  <sodipodi:namedview
     id="namedview6"
     pagecolor="#ffffff"
     bordercolor="#000000"
     borderopacity="0.25"
     inkscape:showpageshadow="2"
     inkscape:pageopacity="0.0"
     inkscape:pagecheckerboard="0"
     inkscape:deskcolor="#d1d1d1"
     showgrid="false"
     inkscape:zoom="44.684211"
     inkscape:cx="9.5111896"
     inkscape:cy="9.5223793"
     inkscape:window-width="1920"
     inkscape:window-height="1018"
     inkscape:window-x="0"
     inkscape:window-y="28"
     inkscape:window-maximized="1"
     inkscape:current-layer="svg4" />
  <path
     fill="var(--ci-primary-color, #000000)"
     d="M464,280H80V100A51.258,51.258,0,0,1,95.113,63.515l.4-.4a51.691,51.691,0,0,1,58.6-10.162,79.1,79.1,0,0,0,11.778,96.627l10.951,10.951-20.157,20.158,22.626,22.626,20.157-20.157h0L311.157,71.471h0l20.157-20.157L308.687,28.687,288.529,48.844,277.578,37.893a79.086,79.086,0,0,0-100.929-8.976A83.61,83.61,0,0,0,72.887,40.485l-.4.4A83.054,83.054,0,0,0,48,100V280H16v32H48v30.7a23.95,23.95,0,0,0,1.232,7.589L79,439.589A23.969,23.969,0,0,0,101.766,456h12.9L103,496h33.333L148,456H356.1l12,40H401.5l-12-40h20.73A23.969,23.969,0,0,0,433,439.589l29.766-89.3A23.982,23.982,0,0,0,464,342.7V312h32V280ZM188.52,60.52a47.025,47.025,0,0,1,66.431,0L265.9,71.471,199.471,137.9,188.52,126.951A47.027,47.027,0,0,1,188.52,60.52ZM432,341.4,404.468,424H107.532L80,341.4V312H432Z"
     class="ci-primary"
     id="path2"
     style="stroke:#000000;stroke-opacity:1;stroke-width:11.776;stroke-dasharray:none" />
</svg>
