<svg width="22" height="21" viewBox="0 0 22 21" fill="none" xmlns="http://www.w3.org/2000/svg">
<mask id="path-1-outside-1_3262_3613" maskUnits="userSpaceOnUse" x="0" y="-6.10352e-05" width="23" height="21" fill="black">
<rect fill="white" y="-6.10352e-05" width="23" height="21"/>
<path d="M4.7796 0.999939C3.86224 0.999939 3.11791 1.8924 3.11791 2.97789V8.77297H2.6841C1.76544 8.77297 1.00036 9.64529 1.00036 10.7249V17.0579C0.99988 17.0723 0.99988 17.0868 1.00036 17.1012V19.3221C1.00016 19.3966 1.01266 19.4703 1.03711 19.539C1.05502 19.5923 1.07983 19.6421 1.11066 19.6865C1.12003 19.6985 1.12984 19.7101 1.14008 19.7212C1.14006 19.724 1.14006 19.7269 1.14008 19.7298C1.15183 19.742 1.1641 19.7536 1.17683 19.7645C1.23158 19.8172 1.29571 19.8548 1.36444 19.8743C1.43318 19.8938 1.50476 19.8948 1.57386 19.8772H3.3532C3.478 19.8772 3.59768 19.8187 3.68593 19.7146C3.77418 19.6105 3.82376 19.4692 3.82377 19.322V17.6564H18.8819V19.322C18.8819 19.4692 18.9315 19.6105 19.0198 19.7146C19.108 19.8187 19.2277 19.8772 19.3525 19.8772H21.1465C21.2226 19.8937 21.3008 19.8878 21.3745 19.86C21.3769 19.86 21.3793 19.86 21.3818 19.86C21.4098 19.8486 21.4369 19.834 21.4627 19.8166C21.4651 19.8166 21.4675 19.8166 21.47 19.8166C21.5364 19.7697 21.5919 19.7041 21.6317 19.6258C21.6806 19.5351 21.7062 19.4296 21.7053 19.3221V17.1013C21.7059 17.0839 21.7059 17.0666 21.7053 17.0492V10.7249C21.7053 9.64532 20.9402 8.77299 20.0215 8.77299H19.5877V2.97793C19.5877 1.89243 18.8434 0.999973 17.926 0.999973L4.7796 0.999939ZM4.7796 2.11039H17.9261C18.33 2.11039 18.6466 2.47865 18.6466 2.97789V8.77297H16.8967C16.9613 8.54477 16.9997 8.29258 16.9997 8.0356V6.16173C16.9997 5.70166 16.8939 5.27956 16.6909 4.93852C16.4878 4.59747 16.1558 4.32259 15.7644 4.32259H13.5292C13.1379 4.32259 12.8059 4.59747 12.6028 4.93852C12.3997 5.27956 12.294 5.70166 12.294 6.16173V8.0356C12.294 8.29258 12.3324 8.54477 12.3969 8.77297H10.3088C10.3733 8.54477 10.4117 8.29258 10.4117 8.0356V6.16173C10.4117 5.70166 10.306 5.27956 10.1029 4.93852C9.89981 4.59747 9.56783 4.32259 9.17647 4.32259H6.94127C6.54993 4.32259 6.21795 4.59747 6.01485 4.93852C5.81174 5.27956 5.70605 5.70166 5.70605 6.16173V8.0356C5.70605 8.29258 5.74442 8.54477 5.80896 8.77297H4.05904V2.97789C4.05904 2.47865 4.37572 2.11039 4.7796 2.11039ZM6.94127 5.43301H9.17647C9.20837 5.43301 9.25781 5.44912 9.33087 5.57182C9.40397 5.69452 9.47058 5.91106 9.47058 6.16173V8.0356C9.47058 8.28625 9.40397 8.50276 9.33087 8.62552C9.25781 8.74822 9.20837 8.76429 9.17647 8.76429H6.94127C6.90936 8.76429 6.85993 8.74819 6.78689 8.62552C6.71379 8.50276 6.64718 8.28625 6.64718 8.0356V6.16173C6.64718 5.91106 6.71379 5.69452 6.78689 5.57182C6.85993 5.44906 6.90936 5.43301 6.94127 5.43301ZM13.5292 5.43301H15.7644C15.7963 5.43301 15.8458 5.44912 15.9188 5.57182C15.9919 5.69452 16.0585 5.91106 16.0585 6.16173V8.0356C16.0585 8.28625 15.9919 8.50276 15.9188 8.62552C15.8458 8.74822 15.7963 8.76429 15.7644 8.76429H13.5292C13.4973 8.76429 13.4479 8.74819 13.3748 8.62552C13.3017 8.50276 13.2351 8.28625 13.2351 8.0356V6.16173C13.2351 5.91106 13.3017 5.69452 13.3748 5.57182C13.4479 5.44906 13.4973 5.43301 13.5292 5.43301ZM2.6841 9.88341H3.50026C3.56331 9.89884 3.62837 9.89884 3.69141 9.88341H19.029C19.092 9.89884 19.1571 9.89884 19.2201 9.88341H20.0216C20.4466 9.88341 20.7642 10.255 20.7642 10.7249V12.9284L1.94149 13.0065V10.7249C1.94149 10.255 2.25913 9.88341 2.6841 9.88341ZM20.7642 14.0389V16.546H3.3532H1.94149V14.1169L20.7642 14.0389ZM1.94149 17.6564H2.88264V18.7669H1.94149V17.6564ZM19.8231 17.6564H20.7642V18.7669H19.8231V17.6564Z"/>
</mask>
<path d="M4.7796 0.999939C3.86224 0.999939 3.11791 1.8924 3.11791 2.97789V8.77297H2.6841C1.76544 8.77297 1.00036 9.64529 1.00036 10.7249V17.0579C0.99988 17.0723 0.99988 17.0868 1.00036 17.1012V19.3221C1.00016 19.3966 1.01266 19.4703 1.03711 19.539C1.05502 19.5923 1.07983 19.6421 1.11066 19.6865C1.12003 19.6985 1.12984 19.7101 1.14008 19.7212C1.14006 19.724 1.14006 19.7269 1.14008 19.7298C1.15183 19.742 1.1641 19.7536 1.17683 19.7645C1.23158 19.8172 1.29571 19.8548 1.36444 19.8743C1.43318 19.8938 1.50476 19.8948 1.57386 19.8772H3.3532C3.478 19.8772 3.59768 19.8187 3.68593 19.7146C3.77418 19.6105 3.82376 19.4692 3.82377 19.322V17.6564H18.8819V19.322C18.8819 19.4692 18.9315 19.6105 19.0198 19.7146C19.108 19.8187 19.2277 19.8772 19.3525 19.8772H21.1465C21.2226 19.8937 21.3008 19.8878 21.3745 19.86C21.3769 19.86 21.3793 19.86 21.3818 19.86C21.4098 19.8486 21.4369 19.834 21.4627 19.8166C21.4651 19.8166 21.4675 19.8166 21.47 19.8166C21.5364 19.7697 21.5919 19.7041 21.6317 19.6258C21.6806 19.5351 21.7062 19.4296 21.7053 19.3221V17.1013C21.7059 17.0839 21.7059 17.0666 21.7053 17.0492V10.7249C21.7053 9.64532 20.9402 8.77299 20.0215 8.77299H19.5877V2.97793C19.5877 1.89243 18.8434 0.999973 17.926 0.999973L4.7796 0.999939ZM4.7796 2.11039H17.9261C18.33 2.11039 18.6466 2.47865 18.6466 2.97789V8.77297H16.8967C16.9613 8.54477 16.9997 8.29258 16.9997 8.0356V6.16173C16.9997 5.70166 16.8939 5.27956 16.6909 4.93852C16.4878 4.59747 16.1558 4.32259 15.7644 4.32259H13.5292C13.1379 4.32259 12.8059 4.59747 12.6028 4.93852C12.3997 5.27956 12.294 5.70166 12.294 6.16173V8.0356C12.294 8.29258 12.3324 8.54477 12.3969 8.77297H10.3088C10.3733 8.54477 10.4117 8.29258 10.4117 8.0356V6.16173C10.4117 5.70166 10.306 5.27956 10.1029 4.93852C9.89981 4.59747 9.56783 4.32259 9.17647 4.32259H6.94127C6.54993 4.32259 6.21795 4.59747 6.01485 4.93852C5.81174 5.27956 5.70605 5.70166 5.70605 6.16173V8.0356C5.70605 8.29258 5.74442 8.54477 5.80896 8.77297H4.05904V2.97789C4.05904 2.47865 4.37572 2.11039 4.7796 2.11039ZM6.94127 5.43301H9.17647C9.20837 5.43301 9.25781 5.44912 9.33087 5.57182C9.40397 5.69452 9.47058 5.91106 9.47058 6.16173V8.0356C9.47058 8.28625 9.40397 8.50276 9.33087 8.62552C9.25781 8.74822 9.20837 8.76429 9.17647 8.76429H6.94127C6.90936 8.76429 6.85993 8.74819 6.78689 8.62552C6.71379 8.50276 6.64718 8.28625 6.64718 8.0356V6.16173C6.64718 5.91106 6.71379 5.69452 6.78689 5.57182C6.85993 5.44906 6.90936 5.43301 6.94127 5.43301ZM13.5292 5.43301H15.7644C15.7963 5.43301 15.8458 5.44912 15.9188 5.57182C15.9919 5.69452 16.0585 5.91106 16.0585 6.16173V8.0356C16.0585 8.28625 15.9919 8.50276 15.9188 8.62552C15.8458 8.74822 15.7963 8.76429 15.7644 8.76429H13.5292C13.4973 8.76429 13.4479 8.74819 13.3748 8.62552C13.3017 8.50276 13.2351 8.28625 13.2351 8.0356V6.16173C13.2351 5.91106 13.3017 5.69452 13.3748 5.57182C13.4479 5.44906 13.4973 5.43301 13.5292 5.43301ZM2.6841 9.88341H3.50026C3.56331 9.89884 3.62837 9.89884 3.69141 9.88341H19.029C19.092 9.89884 19.1571 9.89884 19.2201 9.88341H20.0216C20.4466 9.88341 20.7642 10.255 20.7642 10.7249V12.9284L1.94149 13.0065V10.7249C1.94149 10.255 2.25913 9.88341 2.6841 9.88341ZM20.7642 14.0389V16.546H3.3532H1.94149V14.1169L20.7642 14.0389ZM1.94149 17.6564H2.88264V18.7669H1.94149V17.6564ZM19.8231 17.6564H20.7642V18.7669H19.8231V17.6564Z" fill="#000C39"/>
<path d="M4.7796 0.999939C3.86224 0.999939 3.11791 1.8924 3.11791 2.97789V8.77297H2.6841C1.76544 8.77297 1.00036 9.64529 1.00036 10.7249V17.0579C0.99988 17.0723 0.99988 17.0868 1.00036 17.1012V19.3221C1.00016 19.3966 1.01266 19.4703 1.03711 19.539C1.05502 19.5923 1.07983 19.6421 1.11066 19.6865C1.12003 19.6985 1.12984 19.7101 1.14008 19.7212C1.14006 19.724 1.14006 19.7269 1.14008 19.7298C1.15183 19.742 1.1641 19.7536 1.17683 19.7645C1.23158 19.8172 1.29571 19.8548 1.36444 19.8743C1.43318 19.8938 1.50476 19.8948 1.57386 19.8772H3.3532C3.478 19.8772 3.59768 19.8187 3.68593 19.7146C3.77418 19.6105 3.82376 19.4692 3.82377 19.322V17.6564H18.8819V19.322C18.8819 19.4692 18.9315 19.6105 19.0198 19.7146C19.108 19.8187 19.2277 19.8772 19.3525 19.8772H21.1465C21.2226 19.8937 21.3008 19.8878 21.3745 19.86C21.3769 19.86 21.3793 19.86 21.3818 19.86C21.4098 19.8486 21.4369 19.834 21.4627 19.8166C21.4651 19.8166 21.4675 19.8166 21.47 19.8166C21.5364 19.7697 21.5919 19.7041 21.6317 19.6258C21.6806 19.5351 21.7062 19.4296 21.7053 19.3221V17.1013C21.7059 17.0839 21.7059 17.0666 21.7053 17.0492V10.7249C21.7053 9.64532 20.9402 8.77299 20.0215 8.77299H19.5877V2.97793C19.5877 1.89243 18.8434 0.999973 17.926 0.999973L4.7796 0.999939ZM4.7796 2.11039H17.9261C18.33 2.11039 18.6466 2.47865 18.6466 2.97789V8.77297H16.8967C16.9613 8.54477 16.9997 8.29258 16.9997 8.0356V6.16173C16.9997 5.70166 16.8939 5.27956 16.6909 4.93852C16.4878 4.59747 16.1558 4.32259 15.7644 4.32259H13.5292C13.1379 4.32259 12.8059 4.59747 12.6028 4.93852C12.3997 5.27956 12.294 5.70166 12.294 6.16173V8.0356C12.294 8.29258 12.3324 8.54477 12.3969 8.77297H10.3088C10.3733 8.54477 10.4117 8.29258 10.4117 8.0356V6.16173C10.4117 5.70166 10.306 5.27956 10.1029 4.93852C9.89981 4.59747 9.56783 4.32259 9.17647 4.32259H6.94127C6.54993 4.32259 6.21795 4.59747 6.01485 4.93852C5.81174 5.27956 5.70605 5.70166 5.70605 6.16173V8.0356C5.70605 8.29258 5.74442 8.54477 5.80896 8.77297H4.05904V2.97789C4.05904 2.47865 4.37572 2.11039 4.7796 2.11039ZM6.94127 5.43301H9.17647C9.20837 5.43301 9.25781 5.44912 9.33087 5.57182C9.40397 5.69452 9.47058 5.91106 9.47058 6.16173V8.0356C9.47058 8.28625 9.40397 8.50276 9.33087 8.62552C9.25781 8.74822 9.20837 8.76429 9.17647 8.76429H6.94127C6.90936 8.76429 6.85993 8.74819 6.78689 8.62552C6.71379 8.50276 6.64718 8.28625 6.64718 8.0356V6.16173C6.64718 5.91106 6.71379 5.69452 6.78689 5.57182C6.85993 5.44906 6.90936 5.43301 6.94127 5.43301ZM13.5292 5.43301H15.7644C15.7963 5.43301 15.8458 5.44912 15.9188 5.57182C15.9919 5.69452 16.0585 5.91106 16.0585 6.16173V8.0356C16.0585 8.28625 15.9919 8.50276 15.9188 8.62552C15.8458 8.74822 15.7963 8.76429 15.7644 8.76429H13.5292C13.4973 8.76429 13.4479 8.74819 13.3748 8.62552C13.3017 8.50276 13.2351 8.28625 13.2351 8.0356V6.16173C13.2351 5.91106 13.3017 5.69452 13.3748 5.57182C13.4479 5.44906 13.4973 5.43301 13.5292 5.43301ZM2.6841 9.88341H3.50026C3.56331 9.89884 3.62837 9.89884 3.69141 9.88341H19.029C19.092 9.89884 19.1571 9.89884 19.2201 9.88341H20.0216C20.4466 9.88341 20.7642 10.255 20.7642 10.7249V12.9284L1.94149 13.0065V10.7249C1.94149 10.255 2.25913 9.88341 2.6841 9.88341ZM20.7642 14.0389V16.546H3.3532H1.94149V14.1169L20.7642 14.0389ZM1.94149 17.6564H2.88264V18.7669H1.94149V17.6564ZM19.8231 17.6564H20.7642V18.7669H19.8231V17.6564Z" stroke="#000C39" stroke-width="0.6" mask="url(#path-1-outside-1_3262_3613)"/>
</svg>
