<svg width="20" height="14" viewBox="0 0 20 14" fill="none" xmlns="http://www.w3.org/2000/svg">
<path fill-rule="evenodd" clip-rule="evenodd" d="M0.72998 11.125C0.72998 10.7108 1.06577 10.375 1.47998 10.375H11.605C12.0192 10.375 12.355 10.7108 12.355 11.125C12.355 11.5392 12.0192 11.875 11.605 11.875H1.47998C1.06577 11.875 0.72998 11.5392 0.72998 11.125Z" fill="white"/>
<path fill-rule="evenodd" clip-rule="evenodd" d="M14.605 11.125C14.605 10.7108 14.9408 10.375 15.355 10.375H17.98C18.3942 10.375 18.73 10.7108 18.73 11.125C18.73 11.5392 18.3942 11.875 17.98 11.875H15.355C14.9408 11.875 14.605 11.5392 14.605 11.125Z" fill="white"/>
<path fill-rule="evenodd" clip-rule="evenodd" d="M13.48 10C12.8587 10 12.355 10.5037 12.355 11.125C12.355 11.7463 12.8587 12.25 13.48 12.25C14.1013 12.25 14.605 11.7463 14.605 11.125C14.605 10.5037 14.1013 10 13.48 10ZM10.855 11.125C10.855 9.67525 12.0303 8.5 13.48 8.5C14.9297 8.5 16.105 9.67525 16.105 11.125C16.105 12.5747 14.9297 13.75 13.48 13.75C12.0303 13.75 10.855 12.5747 10.855 11.125Z" fill="white"/>
<path fill-rule="evenodd" clip-rule="evenodd" d="M0.72998 2.875C0.72998 2.46079 1.06577 2.125 1.47998 2.125H5.60498C6.01919 2.125 6.35498 2.46079 6.35498 2.875C6.35498 3.28921 6.01919 3.625 5.60498 3.625H1.47998C1.06577 3.625 0.72998 3.28921 0.72998 2.875Z" fill="white"/>
<path fill-rule="evenodd" clip-rule="evenodd" d="M8.60498 2.875C8.60498 2.46079 8.94077 2.125 9.35498 2.125H17.98C18.3942 2.125 18.73 2.46079 18.73 2.875C18.73 3.28921 18.3942 3.625 17.98 3.625H9.35498C8.94077 3.625 8.60498 3.28921 8.60498 2.875Z" fill="white"/>
<path fill-rule="evenodd" clip-rule="evenodd" d="M7.47998 1.75C6.85866 1.75 6.35498 2.25368 6.35498 2.875C6.35498 3.49632 6.85866 4 7.47998 4C8.1013 4 8.60498 3.49632 8.60498 2.875C8.60498 2.25368 8.1013 1.75 7.47998 1.75ZM4.85498 2.875C4.85498 1.42525 6.03023 0.25 7.47998 0.25C8.92973 0.25 10.105 1.42525 10.105 2.875C10.105 4.32475 8.92973 5.5 7.47998 5.5C6.03023 5.5 4.85498 4.32475 4.85498 2.875Z" fill="white"/>
</svg>
