<svg width="19" height="17" viewBox="0 0 19 17" fill="none" xmlns="http://www.w3.org/2000/svg">
<path d="M9.33901 16.1913L9.5 16.3268L9.66099 16.1913L9.95994 15.9396C13.1806 13.2917 15.2499 11.4839 16.5117 9.95321C17.7866 8.40656 18.25 7.12706 18.25 5.54545C18.25 2.88451 16.1404 0.75 13.5 0.75C11.497 0.75 10.308 1.80836 9.5 2.69557C8.692 1.80836 7.50295 0.75 5.5 0.75C2.85957 0.75 0.75 2.88451 0.75 5.54545C0.75 7.12706 1.21342 8.40656 2.48834 9.95321C3.75007 11.4839 5.81944 13.2917 9.04006 15.9396L9.33901 16.1913ZM9.30836 4.7464L9.5 4.97517L9.69164 4.7464L10.24 4.09181C10.9902 3.23307 11.8735 2.2601 13.5 2.2601C15.3096 2.2601 16.75 3.71145 16.75 5.54545C16.75 6.76264 16.3791 7.78088 15.2709 9.10331C14.1711 10.4157 12.3613 12.0082 9.5 14.3632C6.63872 12.0082 4.82893 10.4157 3.72911 9.10331C2.62085 7.78088 2.25 6.76264 2.25 5.54545C2.25 3.71145 3.69043 2.2601 5.5 2.2601C7.12654 2.2601 8.00984 3.23308 8.76002 4.09182L9.30836 4.7464Z" fill="white" stroke="white" stroke-width="0.5"/>
</svg>
