<svg width="23" height="23" viewBox="0 0 23 23" fill="none" xmlns="http://www.w3.org/2000/svg">
<path fill-rule="evenodd" clip-rule="evenodd" d="M15.2751 16.3428C11.0528 19.4609 5.77793 18.4955 2.96106 15.1035C0.0672109 11.6166 0.247139 6.6315 3.37689 3.31645C6.3557 0.161315 11.4367 -0.252441 14.9603 2.32304C18.4659 4.88453 20.0242 10.3603 16.6846 14.9546C17.4483 15.6961 18.229 16.4447 18.9967 17.2043C20.1442 18.3416 21.2837 19.4859 22.4253 20.6292C23.072 21.2769 23.159 21.8805 22.6812 22.3722C22.2014 22.8649 21.5786 22.789 20.9399 22.1513C19.2116 20.4244 17.4833 18.6994 15.7609 16.9664C15.582 16.7845 15.4451 16.5626 15.2751 16.3428ZM9.71336 16.1179C13.4219 16.1229 16.3987 13.1746 16.4087 9.48481C16.4187 5.76601 13.4389 2.74579 9.74535 2.7298C6.1088 2.71481 3.03902 5.75601 3.01903 9.39387C2.99804 13.0837 6.01284 16.1119 9.71336 16.1179Z" fill="white"/>
</svg>
