<svg width="14" height="13" viewBox="0 0 14 13" fill="none" xmlns="http://www.w3.org/2000/svg">
<path fill-rule="evenodd" clip-rule="evenodd" d="M8.8998 9.1972C6.46565 10.9951 3.42469 10.4385 1.80077 8.48263C0.132481 6.47203 0.236209 3.59761 2.0405 1.68614C3.75777 -0.133139 6.68694 -0.371713 8.71828 1.11333C10.7392 2.5903 11.6376 5.74766 9.71234 8.39676C10.1526 8.82435 10.6027 9.25598 11.0452 9.69394C11.7068 10.3497 12.3637 11.0096 13.0218 11.6688C13.3947 12.0422 13.4448 12.3903 13.1694 12.6738C12.8928 12.9579 12.5337 12.9141 12.1655 12.5465C11.1691 11.5507 10.1728 10.556 9.17987 9.55679C9.07672 9.45191 8.99777 9.32397 8.8998 9.1972ZM5.69345 9.06754C7.8314 9.07042 9.54753 7.37043 9.55329 5.24285C9.55905 3.09856 7.8412 1.35709 5.7119 1.34787C3.61544 1.33922 1.84572 3.0928 1.8342 5.19041C1.8221 7.31799 3.56012 9.06408 5.69345 9.06754Z" fill="black"/>
</svg>
