<svg width="19" height="21" viewBox="0 0 19 21" fill="none" xmlns="http://www.w3.org/2000/svg">
<path d="M16.0832 15.707L12.7745 12.0334C12.4782 11.7044 12.009 11.7044 11.7128 12.0334L10.7992 13.0478C10.7004 13.1575 10.5521 13.1575 10.4533 13.0752C9.26841 11.9239 8.15713 10.6903 7.12013 9.34696C7.04601 9.23742 7.04601 9.07285 7.14483 8.96313L8.05846 7.94879C8.2067 7.78421 8.28066 7.59256 8.28066 7.3457C8.28066 7.12627 8.2067 6.90701 8.05846 6.74244L4.74981 3.12393C4.4535 2.79495 3.98441 2.79495 3.6881 3.12393L1.21897 5.86559C0.996774 6.11228 0.922657 6.52354 1.09544 6.85251C3.76206 12.3351 7.7867 16.8036 12.725 19.7642C12.8238 19.819 12.9473 19.8739 13.0709 19.8739C13.2683 19.8739 13.4658 19.7916 13.6141 19.6272L16.0832 16.8859C16.2314 16.7213 16.3054 16.5295 16.3054 16.2826C16.3054 16.0634 16.2313 15.8714 16.0832 15.707Z" stroke="white" stroke-width="2" stroke-miterlimit="10"/>
<path d="M9.95508 4.3407C12.4678 4.3407 14.5047 6.60218 14.5047 9.39185" stroke="white" stroke-width="2" stroke-miterlimit="10" stroke-linecap="round" stroke-linejoin="round"/>
<path d="M10.2715 1C14.2711 1 17.5134 4.5997 17.5134 9.04021" stroke="white" stroke-width="2" stroke-miterlimit="10" stroke-linecap="round" stroke-linejoin="round"/>
</svg>
