<svg width="28" height="28" viewBox="0 0 28 28" fill="none" xmlns="http://www.w3.org/2000/svg">
<path d="M26.1599 12.08L2.93995 0.46999C2.6267 0.324859 2.28212 0.260379 1.93759 0.282422C1.59306 0.304465 1.25951 0.41233 0.967307 0.596198C0.675106 0.780066 0.433532 1.0341 0.264578 1.33517C0.0956228 1.63624 0.00465272 1.97479 -5.1859e-05 2.31999V25.53C-0.00297723 25.8843 0.085558 26.2335 0.256997 26.5436C0.428436 26.8537 0.67698 27.1144 0.978607 27.3004C1.28023 27.4864 1.62474 27.5915 1.97884 27.6054C2.33293 27.6193 2.68463 27.5417 2.99995 27.38L26.1599 15.77C26.503 15.5978 26.7914 15.3336 26.993 15.0069C27.1946 14.6802 27.3013 14.3039 27.3013 13.92C27.3013 13.5361 27.1946 13.1598 26.993 12.8331C26.7914 12.5064 26.503 12.2422 26.1599 12.07V12.08Z" fill="#F8F8F8"/>
</svg>
