<svg width="18" height="22" viewBox="0 0 18 22" fill="none" xmlns="http://www.w3.org/2000/svg">
<path d="M13.0937 19.7118V21.0702" stroke="#000C39" stroke-width="1.8" stroke-miterlimit="10" stroke-linecap="round" stroke-linejoin="round"/>
<path d="M16.1036 16.4974C16.1036 18.1061 14.9882 19.4236 13.625 19.4236H3.47847C2.11528 19.4236 0.999939 18.1061 0.999939 16.4974V15.9488C0.999939 14.3386 2.11528 13.0226 3.47847 13.0226H13.625C14.9882 13.0226 16.1036 14.3386 16.1036 15.9488V16.4974V16.4974Z" stroke="#000C39" stroke-width="1.8" stroke-miterlimit="10" stroke-linecap="round" stroke-linejoin="round"/>
<path d="M2.85931 12.8798L4.29314 8.21619H8.5519" stroke="#000C39" stroke-width="1.8" stroke-miterlimit="10" stroke-linecap="round" stroke-linejoin="round"/>
<path d="M14.244 12.8798L12.8101 8.21619H8.55072" stroke="#000C39" stroke-width="1.8" stroke-miterlimit="10" stroke-linecap="round" stroke-linejoin="round"/>
<path d="M3.71869 16.2232H4.49199" stroke="#000C39" stroke-width="1.8" stroke-miterlimit="10" stroke-linecap="round" stroke-linejoin="round"/>
<path d="M12.6113 16.2232H13.3846" stroke="#000C39" stroke-width="1.8" stroke-miterlimit="10" stroke-linecap="round" stroke-linejoin="round"/>
<path d="M4.00775 19.7118V21.0702" stroke="#000C39" stroke-width="1.8" stroke-miterlimit="10" stroke-linecap="round" stroke-linejoin="round"/>
<path d="M1.11517 6.59629L9.34084 0.999939L16.2653 7.03522" stroke="#000C39" stroke-width="1.8" stroke-miterlimit="10" stroke-linecap="round" stroke-linejoin="round"/>
</svg>
