<svg width="20" height="19" viewBox="0 0 20 19" fill="none" xmlns="http://www.w3.org/2000/svg">
<path d="M17.086 2.76111C15.2059 0.981481 12.7057 0.000968888 10.0417 0C4.55282 0 0.0857135 4.22327 0.0834369 9.41436C0.082754 11.0737 0.541259 12.6935 1.41273 14.1212L0 19L5.27894 17.6908C6.73345 18.4408 8.371 18.8362 10.0377 18.8368H10.0418C10.0414 18.8368 10.0421 18.8368 10.0418 18.8368C15.53 18.8368 19.9977 14.6131 19.9999 9.4219C20.0009 6.90623 18.9661 4.54064 17.086 2.76111ZM10.0418 17.2467H10.0385C8.55323 17.2461 7.09656 16.8689 5.82578 16.1559L5.52345 15.9863L2.39087 16.7633L3.22706 13.8757L3.03024 13.5796C2.2018 12.3337 1.76412 10.8936 1.76481 9.41501C1.76663 5.10033 5.47951 1.59005 10.0451 1.59005C12.2558 1.59091 14.3339 2.40596 15.8966 3.88502C17.4592 5.36408 18.3194 7.33018 18.3185 9.42114C18.3167 13.7361 14.6037 17.2467 10.0418 17.2467ZM14.5819 11.3858C14.3329 11.2681 13.1096 10.699 12.8816 10.6205C12.6535 10.542 12.4876 10.5027 12.3217 10.7383C12.1558 10.9738 11.679 11.5036 11.5337 11.6607C11.3887 11.8176 11.2435 11.8373 10.9948 11.7196C10.7458 11.6018 9.94423 11.3534 8.99375 10.5519C8.25409 9.92819 7.75472 9.15771 7.60948 8.92216C7.46434 8.68662 7.59411 8.55937 7.71864 8.44203C7.83053 8.33663 7.96747 8.16729 8.09188 8.02993C8.2163 7.89256 8.25785 7.79438 8.34072 7.63742C8.4237 7.48046 8.38215 7.34299 8.31988 7.22532C8.25773 7.10755 7.76007 5.94962 7.55268 5.47863C7.35074 5.01992 7.14562 5.08192 6.99287 5.07482C6.84785 5.06804 6.68188 5.06653 6.51604 5.06653C6.35019 5.06653 6.08052 5.12542 5.85252 5.36096C5.62452 5.59651 4.98173 6.16568 4.98173 7.3235C4.98173 8.48143 5.87335 9.60006 5.99766 9.75702C6.12207 9.91409 7.75222 12.2902 10.2483 13.3092C10.8419 13.5516 11.3054 13.6964 11.6668 13.8048C12.2628 13.9839 12.8052 13.9587 13.234 13.898C13.7121 13.8304 14.7062 13.3289 14.9135 12.7793C15.1208 12.2298 15.1208 11.7589 15.0587 11.6607C14.9964 11.5626 14.8306 11.5037 14.5819 11.3858Z" fill="#1AD13F"/>
</svg>
