<svg width="21" height="20" viewBox="0 0 21 20" fill="none" xmlns="http://www.w3.org/2000/svg">
<path d="M17.7325 2.88679C15.8523 1.02616 13.3522 0.00101299 10.6881 0C5.19931 0 0.732198 4.41551 0.729921 9.84288C0.729238 11.5778 1.18774 13.2713 2.05922 14.764L0.646484 19.8648L5.92542 18.4961C7.37993 19.2802 9.01748 19.6935 10.6842 19.6942H10.6883C10.6879 19.6942 10.6886 19.6942 10.6883 19.6942C16.1765 19.6942 20.6442 15.2782 20.6464 9.85076C20.6474 7.22059 19.6126 4.74732 17.7325 2.88679ZM10.6883 18.0318H10.685C9.19972 18.0311 7.74305 17.6367 6.47226 16.8913L6.16993 16.714L3.03735 17.5263L3.87354 14.5072L3.67673 14.1977C2.84828 12.8951 2.41061 11.3895 2.41129 9.84355C2.41311 5.33249 6.12599 1.66243 10.6916 1.66243C12.9022 1.66333 14.9804 2.51548 16.5431 4.06186C18.1057 5.60824 18.9659 7.66383 18.965 9.84997C18.9632 14.3614 15.2502 18.0318 10.6883 18.0318ZM15.2283 11.9041C14.9794 11.7809 13.7561 11.186 13.5281 11.1039C13.3 11.0219 13.1341 10.9808 12.9681 11.2271C12.8023 11.4733 12.3255 12.0272 12.1802 12.1914C12.0352 12.3555 11.89 12.3761 11.6412 12.253C11.3923 12.1299 10.5907 11.8702 9.64024 11.0322C8.90058 10.3801 8.40121 9.57455 8.25596 9.32828C8.11083 9.08201 8.2406 8.94897 8.36512 8.82629C8.47702 8.7161 8.61395 8.53905 8.73837 8.39543C8.86278 8.25181 8.90433 8.14916 8.9872 7.98506C9.07018 7.82095 9.02863 7.67722 8.96637 7.5542C8.90422 7.43106 8.40656 6.22043 8.19916 5.728C7.99723 5.24841 7.79211 5.31324 7.63935 5.30581C7.49433 5.29872 7.32837 5.29714 7.16252 5.29714C6.99667 5.29714 6.72701 5.35871 6.49901 5.60498C6.27101 5.85125 5.62822 6.44632 5.62822 7.65685C5.62822 8.86748 6.51984 10.037 6.64414 10.2011C6.76856 10.3654 8.3987 12.8497 10.8947 13.915C11.4884 14.1685 11.9519 14.3198 12.3133 14.4332C12.9093 14.6204 13.4517 14.594 13.8805 14.5307C14.3586 14.46 15.3526 13.9356 15.56 13.361C15.7673 12.7865 15.7673 12.2941 15.7052 12.1914C15.6429 12.0889 15.4771 12.0273 15.2283 11.9041Z" fill="currentColor"/>
</svg>
